<svg width="35" height="35" viewBox="0 0 35 35" fill="none" xmlns="http://www.w3.org/2000/svg">
<path d="M8.75008 26.25C10.8475 25.9386 12.763 24.8834 14.1471 23.2771C15.5312 21.6708 16.2917 19.6204 16.2897 17.5C16.3002 14.8383 17.2658 12.2688 19.0108 10.2589C20.7557 8.24893 23.1642 6.9321 25.798 6.54789L29.5751 6.0083C29.473 5.89164 29.3855 5.77497 29.2688 5.65831C24.5147 0.904139 15.3855 2.33331 8.85217 8.83747C3.32508 14.4375 1.45842 21.875 4.02508 26.9208L8.75008 26.25Z" fill="#78350F"/>
<path d="M18.5646 17.5C18.5551 20.1612 17.5921 22.7309 15.8503 24.7429C14.1085 26.7549 11.7033 28.0761 9.0709 28.4667L5.4834 28.9771L5.70215 29.225C10.4563 33.9792 19.5855 32.5646 26.1188 26.0604C31.6167 20.5771 33.5417 13.125 30.9896 8.1521L26.1188 8.8521C24.0348 9.15484 22.1278 10.193 20.7424 11.779C19.357 13.365 18.5845 15.3942 18.5646 17.5Z" fill="#713F12"/>
</svg>
