<svg width="30" height="30" viewBox="0 0 30 30" fill="none" xmlns="http://www.w3.org/2000/svg">
<path d="M3.75 4.5H1.75V3H5.02003L6.05999 5.21268L6.19503 5.5H6.5125H24.9994C25.1296 5.50039 25.2574 5.5345 25.3705 5.599C25.4838 5.6636 25.5784 5.75646 25.645 5.86852C25.7116 5.98058 25.748 6.10801 25.7507 6.23836C25.7533 6.36808 25.7225 6.49626 25.6611 6.61053C25.6608 6.61109 25.6605 6.61165 25.6602 6.61221L21.1872 14.721L21.1866 14.7221C20.8479 15.3397 20.1894 15.75 19.4375 15.75H10.125H9.82992L9.68729 16.0083L8.56229 18.0458L8.53075 18.1029L8.51493 18.1662L8.47743 18.3162L8.4625 18.3759V18.4375C8.4625 18.8886 8.82386 19.25 9.275 19.25H23.25V20.75H8.75C7.65114 20.75 6.75 19.8489 6.75 18.75C6.75 18.3982 6.84043 18.0714 6.99662 17.7981L6.99667 17.7981L7.00042 17.7913L8.68792 14.7288L8.81148 14.5046L8.70176 14.2732L4.20176 4.78573L4.06624 4.5H3.75ZM6.7625 25C6.7625 23.8979 7.6544 23 8.75 23C9.84886 23 10.75 23.9011 10.75 25C10.75 26.0989 9.84886 27 8.75 27C7.6544 27 6.7625 26.1021 6.7625 25ZM19.2625 25C19.2625 23.8979 20.1544 23 21.25 23C22.3489 23 23.25 23.9011 23.25 25C23.25 26.0989 22.3489 27 21.25 27C20.1544 27 19.2625 26.1021 19.2625 25Z" fill="#F8FAFC" stroke="#0F172A"/>
</svg>
